# xmcd
#
# Track frame offsets:
#       150
#       11860
#       27225
#       43602
#       61640
#       75820
#       93000
#       103257
#       121852
#       143760
#       155965
#
# Disc length: 2329 seconds
#
# Revision: 0
# Processed by: cddbd v1.5.2PL0 Copyright (c) Steve Scherf et al.
# Submitted via: CD-DA_X-Tractor v0.24
#
DISCID=7f09170b
DTITLE=Steve Earle - Guitar Town
DYEAR=1986
DGENRE=Americana
TTITLE0=Guitar Town
TTITLE1=Goodbye's All We Got Left
TTITLE2=Hillbilly Highway
TTITLE3=Good 'Ol Boy (Gettin' Tough)
TTITLE4=My Old Friend The Blues
TTITLE5=Someday
TTITLE6=Think It Over
TTITLE7=Fearless Heart
TTITLE8=Little Rock 'n' Roller
TTITLE9=Down The Road
TTITLE10=Good 'Ol Boy (Live)
EXTD=
EXTT0=
EXTT1=
EXTT2=
EXTT3=
EXTT4=
EXTT5=
EXTT6=
EXTT7=
EXTT8=
EXTT9=
EXTT10=
PLAYORDER=
